<svg xmlns="http://www.w3.org/2000/svg" xmlns:xlink="http://www.w3.org/1999/xlink" width="145" height="28" viewBox="0 0 145 28">
  <defs>
    <path id="main-a" d="M5.86043895,17.2651117 C7.10608032,17.2651117 8.14669375,16.9748807 8.98227926,16.3944188 C9.06871914,16.334371 9.15294421,16.2720869 9.23495446,16.2075666 L9.24918124,16.1960863 L9.24920241,16.9168345 L12.0344874,16.9168345 L12.0344874,0.199530466 L8.85462036,0.199530466 L8.85449321,4.78336691 L8.78752427,4.74090528 C8.04801805,4.28426716 7.16471896,4.04779385 6.13762699,4.03148534 L6.02291392,4.03057931 C4.82369397,4.03057931 3.77921208,4.31694054 2.88946825,4.889663 C1.99972443,5.46238545 1.30920584,6.24600908 0.817912512,7.24053388 C0.326619181,8.23505868 0.0809725145,9.37082922 0.0809725145,10.6478455 C0.0809725145,11.9016433 0.322750729,13.0277395 0.806307158,14.026134 C1.28986359,15.0245286 1.96490836,15.8139568 2.83144148,16.3944188 C3.6979746,16.9748807 4.70764043,17.2651117 5.86043895,17.2651117 Z M6.37107454,14.4556759 C5.69022709,14.4556759 5.13317009,14.285407 4.69990353,13.9448694 C4.26663696,13.6043317 3.9455555,13.1457668 3.73665912,12.5691746 C3.52776274,11.9925824 3.42331455,11.3521393 3.42331455,10.6478455 C3.42331455,9.95129117 3.53163119,9.3147179 3.74826447,8.7381257 C3.96489775,8.1615335 4.2995188,7.70103369 4.75212762,7.35662627 C5.20473644,7.01221885 5.78306993,6.84001514 6.48712809,6.84001514 C7.14476483,6.84001514 7.6766769,6.99867474 8.0828643,7.31599393 C8.4890517,7.63331313 8.78498824,8.07833396 8.97067391,8.65105641 C9.15635958,9.22377886 9.24920241,9.88937523 9.24920241,10.6478455 C9.24920241,11.4063158 9.15635958,12.0719122 8.97067391,12.6446346 C8.78498824,13.2173571 8.4813148,13.6623779 8.05965359,13.9796971 C7.63799239,14.2970163 7.0751327,14.4556759 6.37107454,14.4556759 Z M20.6221317,17.2651117 C21.8755099,17.2651117 22.9799528,16.9845551 23.9354603,16.4234419 C24.8909678,15.8623287 25.6375789,15.0845097 26.1752937,14.0899849 C26.7130084,13.09546 26.9818658,11.9480803 26.9818658,10.6478455 C26.9818658,9.35535024 26.7149427,8.2118402 26.1810964,7.2173154 C25.6472501,6.2227906 24.9025732,5.44303672 23.9470657,4.87805376 C22.9915582,4.3130708 21.8832468,4.03057931 20.6221317,4.03057931 C19.3842272,4.03057931 18.2894555,4.30920105 17.3378164,4.86644452 C16.3861773,5.42368799 15.6395662,6.19957212 15.097983,7.19409692 C14.5563998,8.18862173 14.2856082,9.33987125 14.2856082,10.6478455 C14.2856082,11.9403408 14.5505971,13.0838508 15.080575,14.0783756 C15.6105528,15.0729004 16.3513613,15.8526543 17.3030003,16.4176373 C18.2546394,16.9826202 19.3610165,17.2651117 20.6221317,17.2651117 Z M20.6221317,14.316365 C19.639545,14.316365 18.8948681,13.9855017 18.388101,13.3237751 C17.8813338,12.6620485 17.6279503,11.7700719 17.6279503,10.6478455 C17.6279503,9.9203332 17.7343327,9.28182506 17.9470975,8.73232108 C18.1598623,8.18281711 18.4867465,7.75327527 18.9277499,7.44369556 C19.3687534,7.13411586 19.9335473,6.979326 20.6221317,6.979326 C21.6201921,6.979326 22.3726059,7.31212419 22.8793731,7.97772055 C23.3861402,8.64331692 23.6395238,9.53335857 23.6395238,10.6478455 C23.6395238,11.723635 23.3900087,12.6040023 22.8909784,13.2889474 C22.3919482,13.9738925 21.6356659,14.316365 20.6221317,14.316365 Z M34.4072524,17.1316055 C35.2389694,17.1509542 36.0880945,17.0793639 36.9546276,16.9168345 L36.9546276,16.9168345 L36.9546276,14.2931465 C36.211885,14.3937599 35.534906,14.4247179 34.9236906,14.3860204 C34.3124753,14.347323 33.8676034,14.1073987 33.5890749,13.6662476 C33.4420737,13.4340629 33.3627705,13.1225483 33.3511651,12.7317039 C33.3395598,12.3408595 33.3337571,11.9016433 33.3337571,11.4140553 L33.3337571,11.4140553 L33.3336087,6.81689209 L36.9546276,6.81679666 L36.9546276,4.37885648 L33.3336087,4.3788777 L33.3337571,0.896084802 L30.1771007,0.896084802 L30.17691,4.3788777 L28.0417155,4.37885648 L28.0417155,6.81679666 L30.17691,6.81689209 L30.1771007,11.5998031 C30.1771007,12.2927854 30.1836931,12.918173 30.1968779,13.475966 L30.2003114,13.6140061 C30.2157852,14.2060772 30.3782602,14.7884741 30.6877363,15.3611965 C31.02816,15.9726164 31.525256,16.4157024 32.1790243,16.6904544 C32.8327926,16.9652064 33.5755353,17.1122567 34.4072524,17.1316055 Z M44.8315366,17.2651117 C46.077178,17.2651117 47.1177914,16.9748807 47.9533769,16.3944188 C48.0398168,16.334371 48.1240419,16.2720869 48.2060521,16.2075666 L48.2201941,16.1960863 L48.2203001,16.9168345 L51.0055851,16.9168345 L51.0055851,0.199530466 L47.8257181,0.199530466 L47.8257074,4.78356835 L47.758622,4.74090528 C47.0191157,4.28426716 46.1358166,4.04779385 45.1087247,4.03148534 L44.9940116,4.03057931 C43.7947917,4.03057931 42.7503098,4.31694054 41.8605659,4.889663 C40.9708221,5.46238545 40.2803035,6.24600908 39.7890102,7.24053388 C39.2977169,8.23505868 39.0520702,9.37082922 39.0520702,10.6478455 C39.0520702,11.9016433 39.2938484,13.0277395 39.7774048,14.026134 C40.2609613,15.0245286 40.936006,15.8139568 41.8025392,16.3944188 C42.6690723,16.9748807 43.6787381,17.2651117 44.8315366,17.2651117 Z M45.3421722,14.4556759 C44.6613248,14.4556759 44.1042678,14.285407 43.6710012,13.9448694 C43.2377347,13.6043317 42.9166532,13.1457668 42.7077568,12.5691746 C42.4988604,11.9925824 42.3944122,11.3521393 42.3944122,10.6478455 C42.3944122,9.95129117 42.5027289,9.3147179 42.7193622,8.7381257 C42.9359954,8.1615335 43.2706165,7.70103369 43.7232253,7.35662627 C44.1758341,7.01221885 44.7541676,6.84001514 45.4582258,6.84001514 C46.1158625,6.84001514 46.6477746,6.99867474 47.053962,7.31599393 C47.4601494,7.63331313 47.7560859,8.07833396 47.9417716,8.65105641 C48.1274573,9.22377886 48.2203001,9.88937523 48.2203001,10.6478455 C48.2203001,11.4063158 48.1274573,12.0719122 47.9417716,12.6446346 C47.7560859,13.2173571 47.4524125,13.6623779 47.0307513,13.9796971 C46.6090901,14.2970163 46.0462304,14.4556759 45.3421722,14.4556759 Z M59.5932294,17.2651117 C60.8466076,17.2651117 61.9510505,16.9845551 62.906558,16.4234419 C63.8620655,15.8623287 64.6086766,15.0845097 65.1463914,14.0899849 C65.6841061,13.09546 65.9529635,11.9480803 65.9529635,10.6478455 C65.9529635,9.35535024 65.6860404,8.2118402 65.1521941,7.2173154 C64.6183478,6.2227906 63.8736709,5.44303672 62.9181634,4.87805376 C61.9626559,4.3130708 60.8543445,4.03057931 59.5932294,4.03057931 C58.3553249,4.03057931 57.2605531,4.30920105 56.3089141,4.86644452 C55.357275,5.42368799 54.6106639,6.19957212 54.0690807,7.19409692 C53.5274975,8.18862173 53.2567059,9.33987125 53.2567059,10.6478455 C53.2567059,11.9403408 53.5216948,13.0838508 54.0516727,14.0783756 C54.5816505,15.0729004 55.322459,15.8526543 56.274098,16.4176373 C57.2257371,16.9826202 58.3321142,17.2651117 59.5932294,17.2651117 Z M59.5932294,14.316365 C58.6106427,14.316365 57.8659658,13.9855017 57.3591987,13.3237751 C56.8524315,12.6620485 56.5990479,11.7700719 56.5990479,10.6478455 C56.5990479,9.9203332 56.7054304,9.28182506 56.9181952,8.73232108 C57.13096,8.18281711 57.4578442,7.75327527 57.8988476,7.44369556 C58.3398511,7.13411586 58.904645,6.979326 59.5932294,6.979326 C60.5912898,6.979326 61.3437036,7.31212419 61.8504708,7.97772055 C62.3572379,8.64331692 62.6106215,9.53335857 62.6106215,10.6478455 C62.6106215,11.723635 62.3611064,12.6040023 61.8620761,13.2889474 C61.3630459,13.9738925 60.6067636,14.316365 59.5932294,14.316365 Z M73.37835,17.1316055 C74.2100671,17.1509542 75.0591922,17.0793639 75.9257253,16.9168345 L75.9257253,16.9168345 L75.9257253,14.2931465 C75.1829826,14.3937599 74.5060036,14.4247179 73.8947883,14.3860204 C73.283573,14.347323 72.8387011,14.1073987 72.5601726,13.6662476 C72.4131714,13.4340629 72.3338682,13.1225483 72.3222628,12.7317039 C72.3106575,12.3408595 72.3048548,11.9016433 72.3048548,11.4140553 L72.3048548,11.4140553 L72.3048229,6.81689209 L75.9257253,6.81679666 L75.9257253,4.37885648 L72.3048229,4.3788777 L72.3048548,0.896084802 L69.1481984,0.896084802 L69.1481242,4.3788777 L67.0128132,4.37885648 L67.0128132,6.81679666 L69.1481242,6.81689209 L69.1481984,11.5998031 C69.1481984,12.2927854 69.1547908,12.918173 69.1679756,13.475966 L69.1714091,13.6140061 C69.1868829,14.2060772 69.3493579,14.7884741 69.658834,15.3611965 C69.9992577,15.9726164 70.4963537,16.4157024 71.150122,16.6904544 C71.8038903,16.9652064 72.546633,17.1122567 73.37835,17.1316055 Z"/>
  </defs>
  <g fill="none" fill-rule="evenodd">
    <g transform="translate(68.356 5.04)">
      <mask id="main-b" fill="#fff">
        <use xlink:href="#main-a"/>
      </mask>
      <use fill="#FFF" fill-rule="nonzero" opacity=".9" xlink:href="#main-a"/>
      <g fill="#F3F3F3" mask="url(#main-b)">
        <rect width="75.358" height="17.36" transform="translate(0 -.158)"/>
      </g>
    </g>
    <g transform="translate(0 .201)">
      <ellipse cx="43.798" cy="14" fill="#FF5151" rx="13.593" ry="13.597"/>
      <ellipse cx="13.593" cy="13.597" fill="#4DCBC3" rx="13.593" ry="13.597"/>
    </g>
  </g>
</svg>
